# xmcd
# 
# Track frame offsets:
#     182
#     15357
#     27742
#     35025
#     47955
#     60307
#     71400
#     82870
#     93712
#     105855
#     118355
#     129650
#     142980
#     156572
#     169235
#     184037
#     198322
#     209782
#     218212
#     228082
#     241895
#     257105
#     271415
#     281640
#     292482
# 
# Disc length: 4100
# 
# Revision: 3
# Processed by: cddbd v1.5.2PL0 Copyright (c) Steve Scherf et al.
# Submitted via: fre:ac v1.0.17
# 
DISCID=81100219
DTITLE=Nat King Cole - Collection
DYEAR=1993
DGENRE=Unknown
TTITLE0=Embraceable You
TTITLE1=Unforgettable
TTITLE2=When You're Smiling
TTITLE3=Route 66
TTITLE4=Mona Lisa
TTITLE5=You're the Cream in my Coffee
TTITLE6=Honeysuckle Rose
TTITLE7=Babs
TTITLE8=Gone with the Draft
TTITLE9=This Side Up
TTITLE10=Scotchin' with the Soda
TTITLE11=Hit that Jive, Jack
TTITLE12=Cuba
TTITLE13=I Like to Riff
TTITLE14=That Ain't Right
TTITLE15=Call the Police
TTITLE16=Too Marvelous for Words
TTITLE17=It's only a Paper Moon
TTITLE18=Somebody Loves Me
TTITLE19=Darling, Je Vous Aime Beaucoup
TTITLE20=Hit the Ramp
TTITLE21=Are you fer it?
TTITLE22=It's crazy, but I'm in Love
TTITLE23=The Sand and the Sea
TTITLE24=The End of  Beautiful Friendship
EXTD=
EXTT0=
EXTT1=
EXTT2=
EXTT3=
EXTT4=
EXTT5=
EXTT6=
EXTT7=
EXTT8=
EXTT9=
EXTT10=
EXTT11=
EXTT12=
EXTT13=
EXTT14=
EXTT15=
EXTT16=
EXTT17=
EXTT18=
EXTT19=
EXTT20=
EXTT21=
EXTT22=
EXTT23=
EXTT24=
PLAYORDER=
